/* XPM */
static char *c7358dcc6c6f4bcbf7928ba9c4cd6cfdXa0BhtQ3ZK3MHxEG[] = {
/* columns rows colors chars-per-pixel */
"64 64 147 2 ",
"   c None",
".  c #000100",
"X  c #080607",
"o  c #030A06",
"O  c #090708",
"+  c #040E09",
"@  c #0C0B0B",
"#  c #100E0F",
"$  c #06130D",
"%  c #081710",
"&  c #001B11",
"*  c #0A1D14",
"=  c #131314",
"-  c #171718",
";  c #181718",
":  c #1C1B1C",
">  c #002216",
",  c #0B2116",
"<  c #032619",
"1  c #0D251A",
"2  c #0E281B",
"3  c #102E1F",
"4  c #1F1F20",
"5  c #0F2E20",
"6  c #102E20",
"7  c #003D27",
"8  c #113223",
"9  c #133827",
"0  c #153D2A",
"q  c #232324",
"w  c #2C2C2D",
"e  c #2E2E30",
"r  c #323234",
"t  c #363738",
"y  c #3B3B3D",
"u  c #17422E",
"i  c #184631",
"p  c #1A4C34",
"a  c #1B5037",
"s  c #1D553A",
"d  c #1F593E",
"f  c #3E3F41",
"g  c #205D41",
"h  c #226445",
"j  c #256A4A",
"k  c #27714E",
"l  c #297551",
"z  c #2A7C55",
"x  c #2B7F58",
"c  c #434445",
"v  c #47484A",
"b  c #4B4C4E",
"n  c #4E4F51",
"m  c #5A5C5E",
"M  c #525355",
"N  c #5D5F61",
"B  c #5F6163",
"V  c #616365",
"C  c #656769",
"Z  c #66686A",
"A  c #696B6D",
"S  c #6C6E70",
"D  c #6F7174",
"F  c #717476",
"G  c #747678",
"H  c #76787B",
"J  c #787B7D",
"K  c #00925C",
"L  c #2D845C",
"P  c #2F895F",
"I  c #2F8A60",
"U  c #318E62",
"Y  c #329365",
"T  c #349768",
"R  c #359C6C",
"E  c #00A366",
"W  c #00AE6E",
"Q  c #00B572",
"!  c #00B874",
"~  c #1CBA7A",
"^  c #37A16F",
"/  c #38A572",
"(  c #3BAA76",
")  c #3CAE78",
"_  c #3FB67E",
"`  c #3FB87F",
"'  c #00C37A",
"]  c #7B7D80",
"[  c #7E8184",
"{  c #42BF84",
"}  c #1EC682",
"|  c #43C286",
" . c #44C588",
".. c #46CC8D",
"X. c #47D08F",
"o. c #47D090",
"O. c #48D191",
"+. c #66CA9D",
"@. c #838689",
"#. c #898C8F",
"$. c #939699",
"%. c #969A9D",
"&. c #989B9E",
"*. c #88A29A",
"=. c #9B9EA2",
"-. c #9EA1A5",
";. c #A0A3A7",
":. c #A3A7AA",
">. c #A5A9AD",
",. c #A8ACAF",
"<. c #AAADB1",
"1. c #AEB2B6",
"2. c #B3B7BB",
"3. c #B9BDC1",
"4. c #95DFC0",
"5. c #BFC3C8",
"6. c #BCC0C4",
"7. c #C2C6CA",
"8. c #C5CACE",
"9. c #C7CCD0",
"0. c #CACED2",
"q. c #CCD2D5",
"w. c #CFD4D8",
"e. c #D1D6DA",
"r. c #D5DADE",
"t. c #D7DCE0",
"y. c #D9DEE3",
"u. c #DCE1E6",
"i. c #DEE3E8",
"p. c #E1E6EB",
"a. c #E3E8ED",
"s. c #E4E9EE",
"d. c #E5EAEE",
"f. c #E6EBF0",
"g. c #E7ECF1",
"h. c #E8EDF2",
"j. c #E9EEF3",
"k. c #E8ECF1",
"l. c #EAEFF4",
"z. c #EAEFF5",
"x. c #E9EFF4",
"c. c #E9EEF3",
"v. c #EBF0F5",
"b. c #ECF1F6",
"n. c #EDF2F7",
"m. c #ECF1F6",
"M. c #EFF4F9",
/* pixels */
"  . . . . . . . . . . . . . $     % . . . . . . . . . . . . . . . . . . . . . . . . . . . . . . . . . . . . . . . . . . . . .   ",
". . 1 2 2 2 2 2 2 2 2 2 2 2 z ....l 2 2 2 2 2 2 1 3 2 1 2 2 1 3 2 1 2 2 1 2 2 2 2 2 1 2 2 2 2 1 2 2 2 1 2 1 2 2 2 1 2 < < > . . ",
". * ( | { { { { { { | { { { ...... .{ { { { { { { | | { { { { { | { { { | | | | | | { | { | { | { | | { | { | { | { | ~ ! E & . ",
". * ` ..................................X...X.......................X..._ R ^ { ....................................X.} ' W & . ",
". * ` ........................................ ...................O.) s % o o 1 l | ..................................} ' W & . ",
". * ` ..........................................................O.) 3 X : v g @ . s  .................................} ' W & . ",
". * ` .................................................. ....... .s X b 8.k.p.<.q o I ................................} ' W & . ",
". * ` ..................................................X.....X._ # 4 0.n.k.k.M.%.X u  ................... ...........} ' W & . ",
". * _ .... ...................................................X.R . n h.l.f.l.v.w.: , | .......................... ...} ' W & . ",
". * _ ........................................................X.R . c s.g.l.f.h.7.- 2 { ................ .............} ' W & . ",
". * _ ............ .............................................` , = 2.b.l.l.l.] . a ................................} ' W & . ",
". * { .............................. .................X. .......X.j . w ;.w.8.@.= $ R .... ...........................} ' W & . ",
". * ` .......................................... .................| s . X 4 : . + z ..................................} ' W & . ",
". * ` .................... ............... .....X...............X.X.| L 0 , 2 p T .................. .................} ' W & . ",
". * ` ............ .........................................X. .) L a p h Y {  .....................X.................} ' W & . ",
". * ` ..............................................X.X. .( l 0 $ . . . . $ x ................................ .......} ' W & . ",
". * ` .................. ........... .............{ R j 9 + . X q N %.<.F # + T X... ......................... .X.....} ! W & . ",
". * ` ........................................{ k 3 o . O r A >.e.l.v.b.h.@.. u | X................. .................} ' Q & . ",
". * ` ......................................{ i . # y H 1.8.e.l.v.l.l.f.h.y.r . U ..............X. .X.X...............} ' W & . ",
". * ` ......................................l . t 1.e.;.V w 4 &.l.l.g.l.l.h.$.. 0 | ..................................} ' W & . ",
". * ` ....................................| 8 @ 1.v.G . . . . C l.f.l.f.h.h.u.y . U X...X.X...........................} ' W & . ",
". * ` ....................................( + r u.w.6 @ z 9 . %.v.l.f.l.h.h.v.%.X 8 / / ( / ) ..X.....................} ' W & . ",
". * ` ................ ...................x . V b.,.X u ` , : 9.l.l.l.l.r.7.u.u.c . o o + o % s { ...... .............} ' W & . ",
". * _ ....................................s . %.M.G . k T . v a.f.l.v.2.r = n e.7.m f y y y 4 . j ....................} ' W & . ",
". * ` ....................................u X :.y.y o R h . @.M.l.f.f.N . $ . A k.l.d.d.s.k.,.X 9  ............. .....} ' W & . ",
". * ` ....................................j . q t . 8 { j w 7.h.g.l.y.r $ L * X m %.=.=.=.=.C . p ...... .............} ' W & . ",
". * ` ...................... .............{ s + o 8 R ..+.w.h.h.l.l.t.r + R Y * . . . . . . . * T X...................} ' W & . ",
". * ` ........................................( / { ..o.4.b.h.h.f.l.l.J . a .._ z d d d d d j / ......................} ' W & . ",
". * ` o................................. .............P *.f.h.h.g.g.v.0.q + / ....X.......X.X.X.......................} ' W & . ",
". * ` .......... .................................o.( $ t i.h.h.l.l.l.v.H . s ..............X. .......................} ' W & . ",
". * ` ..............................................L . B h.g.>.m J r.v.9.: $ / X... .................................} ' W & . ",
". * ` ..............................................i . =.M.3.; . . A g.l.G . g ....X......................... .......} ' W & . ",
". * _ ................................o.....X.X.O.` * : q.n.] . i * - 5.b.8.: $ ( ...................... .............} ' W & . ",
". % { X............................. .T U P P P U h . n d.p.c . T h . S h.h.S . h ............ .......................} ' W & . ",
". * _ ............................` u o . . . . . . @ &.b.8.: , { ( $ : 8.b.7.: % ( ..................................} ' W & . ",
". * _ X... ......... ........... .s . r C C Z Z C A -.d.v.%.. p  ...d . H l.g.C . h ..................................} ' W & . ",
". * _ X.........................{ , : 5.b.h.v.h.v.l.v.l.g.m . L X.O.^ $ q w.v.6.- % _ X...............................} ' W & . ",
". * _ X.........................` * : 7.b.h.h.b.l.l.v.d.>.= * ) X... .a . [ v.g.V . h ................................} ' W & . ",
". * _ X...........................s . r Z A Z A A A Z M = . k ......X.R o w e.b.3.= * ` X............. ...............} ' W & . ",
". * _ .......... .......X. .......` u . . . . . . . . . * k  ......... .i . #.v.d.m . j ..............................} ' W & . ",
". * { .. ........... ............... .T P P P L P P P Y _  .............T . r r.b.2.= , ` .... ..... ........... .....} ' W & . ",
". * _ ..............X...................X...X........................... .0 . %.b.d.b . T X.........X.................} ' W & . ",
". * { ..................................................................X.U . t w.r.g X T X...........................} ' Q > . ",
". * _ .................................................................... .0 . e r X 3 { ............................} ' ' K   ",
". * ` ............ .X............................................. .......X.) 0 O X 9 / X............... .............} ' ' '   ",
". * _ .................. .........X.X.......X...................X.X.....X...X. .( / | X...X.........X. ...............} ' ! !   ",
". * _ ..................X....... .L d d g d d g / P h { ......U g _ ` h P  .l d g d g d d j | ........................} ' ! 7 . ",
". * { ...... ...................{ 1 . . . . . . j 2 . l ....` , . L Y . 6 ) * . . . . . . @ ( ........................} ' W & . ",
". * ` ..........................{ 1 . j U I I U { k . * _ ..h . 2 { Y . 6 { T L l $ X j P U | ........................} ! W & . ",
". * ` ..........................{ 2 . R O.o.o.o.o.{ 8 . h / $ . L O.U . 6  ...X.` * o / O.X......... .................} ' Q & . ",
". * ` ..........................{ 1 . T O...........U o % 8 . u  ...U . 6 | X..._ * + / ............X.................} ' W & . ",
". * ` .......... ...............{ 2 . p j k _ ........a . . $ ^ ..O.U . 6 | ...._ * + / .................... .........} ' W & . ",
". * ` ..........................{ 1 . o o + T o.......x . . 6 { ..O.U . 6 | ...._ * o / X.............................} ' W & . ",
". * ` ..........................{ 1 . z / /  .......` 5 . o o x ..O.U . 6 | X..._ * o ^ X.............................} ' W & . ",
". * { ..........................{ 1 o T ............j . 8 j . , _ O.U . 3 | X..._ * o / .......... .X.................} ' W & . ",
". * _ ..........................{ 2 . R O.........^ + X I | 8 . d ..Y . 3 | ...._ * o / X.............................} ' W & . ",
". * ` .............. ...........{ 1 . 0 s s s d R i . i  ...U o + T Y . 6 | X..._ % o / ........................ .....} ' W & . ",
". * ` ..........................{ 9 . . o . . . j 2 $ R O... .p X x T + 0  .....{ 3 % ( X...X. .......................} ' W & . ",
". * ` ............................( T Y Y T Y T { ( R ........` Y  . .R ) ......../ /  ............... ...............} ' W & . ",
". * ` ................................o.......O.................X.......X.........O...................................} ' W & . ",
". * ` ............................................................................................................X.X.} ' W & . ",
". * ( | { | | { { | { { { { { { { { | { { | { | | { { | { | | { { { | { { { | { { { | { { | { | { { | | { | | { { { { ~ ! E & . ",
". o , 2 1 2 2 2 2 2 2 2 2 2 2 2 2 2 1 2 2 2 1 2 2 2 2 2 1 2 2 2 2 2 2 2 2 1 1 3 2 2 1 2 2 2 1 2 2 2 1 2 1 2 3 1 2 2 2 < > > . . ",
"  . . . . . . . . . . . . . . . . . . . . . . . . . . . . . . . . . . . . . . . . . . . . . . . . . . . . . . . . . . . . . .   "
};
