/* XPM */
static char *_ae22df7534c4327ee4e45d1a6daeff0TrXdFkgPhdsTJjnG[] = {
/* columns rows colors chars-per-pixel */
"64 64 182 2 ",
"   c None",
".  c #000000",
"X  c #060708",
"o  c #07090A",
"O  c #0B0C0D",
"+  c #0C0E10",
"@  c #0E1114",
"#  c #111315",
"$  c #13161A",
"%  c #161A1D",
"&  c #191B1E",
"*  c #171C20",
"=  c #191E23",
"-  c #1C2125",
";  c #1E242B",
":  c #202325",
">  c #21262A",
",  c #25292D",
"<  c #2A2B2D",
"1  c #242C33",
"2  c #282F35",
"3  c #262F39",
"4  c #2B3136",
"5  c #2B333A",
"6  c #31363B",
"7  c #323335",
"8  c #2F3840",
"9  c #313A43",
"0  c #333E48",
"q  c #394047",
"w  c #36414B",
"e  c #39444E",
"r  c #3B4651",
"t  c #3E4954",
"y  c #3C4B5B",
"u  c #43484D",
"i  c #434C55",
"p  c #434E5A",
"a  c #4A4D50",
"s  c #45515D",
"d  c #4A535B",
"f  c #565A5C",
"g  c #475460",
"h  c #495663",
"j  c #4C5966",
"k  c #4B5B6A",
"l  c #515F6D",
"z  c #55606C",
"x  c #5B6268",
"c  c #546271",
"v  c #586777",
"b  c #5B6B7B",
"n  c #576776",
"m  c #636669",
"M  c #65696C",
"N  c #646C74",
"B  c #6A6E71",
"V  c #626E79",
"C  c #5F6F80",
"Z  c #576E84",
"A  c #5F7081",
"S  c #5B728A",
"D  c #627283",
"F  c #697581",
"G  c #6E7A85",
"H  c #657789",
"J  c #6C7C8B",
"K  c #67798B",
"L  c #707D8A",
"P  c #6C7F92",
"I  c #627B94",
"U  c #74828F",
"Y  c #66819B",
"T  c #6E8295",
"R  c #748393",
"E  c #718599",
"W  c #758A9F",
"Q  c #7C8B99",
"!  c #778CA1",
"~  c #798EA3",
"^  c #718EAC",
"/  c #7A90A6",
"(  c #7D94AA",
")  c #7391AF",
"_  c #7897B6",
"`  c #7B9BBB",
"'  c #7E9FC0",
"]  c #81868A",
"[  c #878C90",
"{  c #81909F",
"}  c #92989D",
"|  c #8292A2",
" . c #8898A7",
".. c #8198AE",
"X. c #8D9DAD",
"o. c #979CA2",
"O. c #999EA3",
"+. c #849CB3",
"@. c #889FB6",
"#. c #9CA2A7",
"$. c #81A0BE",
"%. c #8BA3BC",
"&. c #93A4B4",
"*. c #99ABBD",
"=. c #94A8BB",
"-. c #A6ACB1",
";. c #A8AEB4",
":. c #AEB5BA",
">. c #B2B8BE",
",. c #8FA8C1",
"<. c #83A3C3",
"1. c #92ACC6",
"2. c #95AFCA",
"3. c #9CAEC0",
"4. c #96B1CC",
"5. c #99B3CE",
"6. c #9FB2C4",
"7. c #8AAED2",
"8. c #8EB3D7",
"9. c #95B5D5",
"0. c #9BB6D2",
"q. c #9DB9D5",
"w. c #A2B4C6",
"e. c #A8B7C4",
"r. c #A4B7C9",
"t. c #A5B9CC",
"y. c #ADBDCD",
"u. c #A9B8C5",
"i. c #B5BCC2",
"p. c #B8BFC5",
"a. c #ABBFD3",
"s. c #A2BEDA",
"d. c #96BDE4",
"f. c #98BFE6",
"g. c #B9C0C6",
"h. c #BCC4CA",
"j. c #ACC1D4",
"k. c #A4C1DE",
"l. c #B0C0D0",
"z. c #B1C6DA",
"x. c #B5CADE",
"c. c #98C0E7",
"v. c #9EC7F0",
"b. c #9FC8F1",
"n. c #A7C5E2",
"m. c #A9C7E4",
"M. c #ABC8E7",
"N. c #ADCCEB",
"B. c #B8CEE3",
"V. c #B0CFEE",
"C. c #BBD1E6",
"Z. c #B2D0EF",
"A. c #BED5EB",
"S. c #A2CAF3",
"D. c #A9CFF5",
"F. c #AED2F6",
"G. c #B5D5F5",
"H. c #B8D7F6",
"J. c #BCD9F7",
"K. c #B7D7F8",
"L. c #B7D8F8",
"P. c #B8D8F9",
"I. c #C2C9CF",
"U. c #CFD6DD",
"Y. c #C0D7EC",
"T. c #C4D9EE",
"R. c #D5DEE7",
"E. c #C4DDF4",
"W. c #C3DEF8",
"Q. c #DAE3EA",
"!. c #C7E0F9",
"~. c #CBE3FA",
"^. c #D1E7FB",
"/. c #D5E9FC",
"(. c #DBECFC",
"). c #DFF1FF",
"_. c #E0EFFD",
"`. c #E4EDF5",
"'. c #E4F1FD",
"]. c #EDF7FF",
"[. c #EFF8FF",
"{. c #F1FAFF",
/* pixels */
"          . . . . . . . . . . . .                                                                                               ",
"      . . . . o + + O O o . . . . . . . .                                                                                       ",
"    . . O f #.>.h.I.h.>.:.#.[ B a < # . . . . .                                                                                 ",
"  . . : -.].{.{.{.{.[.[.{.{.{.{.'.Q.I.} m < X . . .                                                                             ",
"  . O -.{.].[.].[.].].[.[.[.[.[.].{.{.{.].Q.;.m : . . . .                                                                       ",
". . f ].].].].].].].[.[.[.[.[.[.{.].].].].{.{.].U.[ 7 . . .                                                                     ",
". . o.{.[.].].[.].].[.[.].].].:.o.`.[.{.].].].].{.{.Q.} 4 . . .                                                                 ",
". o >.{.].[.[.].].]._./././.T.2 o u.).`.'.'.].[.].].].{.R.G % . .                                                               ",
". + p.{.].].[.[._.^.~.~.W.B.t.: . | C.E.~././.(.'.].].[.].^.w.t . . . . . .                                                     ",
". + p.{.].].]._.^.W.~.~.*.< % X . $ & J ~.~.~.~.~./.(.].'.~.~.Y.L # . . . . . . . .                                             ",
". O p.{.[.].(.E.~.~.~.^.&.$ o . . o O V ~.~.~.~.~.~.~.e./ A.~.~.~.&.> . . 1 p 4 $ . . . .                                       ",
". O >.{.[._.~.~.W.^.~.~.E.a.&.= X R t.Y.~.~.~.~.~.~.A.5 X %.W.W.~.~.t.6 . * ( N.4.K 4 X . .                                     ",
". X ;.{.[./.~.~.^.W.~.~.^.^.Y., X 3./.~.~.~.~.~.~.~.*.o # 4.K.K.W.~.^.z.q . $ +.L.L.m.E > . .                                   ",
". . O.{.'.~.~.~.~.~.~.~.~.~.W.| V A.~.~.~.~.~.~.~.~.x . e Z.K.G.G.K.W.~.x.q . = $.D.F.K.q.y . .                                 ",
". . ] {._.~.~.^.~.~.W.^.~.~.^.~.~.~.~.~.~.~.~.~.~.j.* . W K.G.G.G.G.K.J.~.z.6 . 1 7.b.S.F.M.z X .                               ",
". . M [./.~.~.E.~.~.~.~.~.~.~.~.~.~.~.~.~.~.~.~.~.V . 4 n.G.G.G.G.G.G.G.H.~.t.: . r f.b.b.D.N.h . .                             ",
"  . u `./.~.~.~.~.~.~.~.~.~.~.~.~.~.~.~.~.~.~.~.t.% . T L.K.G.G.G.G.G.G.G.H.~.X.+ . Z b.b.b.S.9.* .                             ",
"  . < R.^.~.~.~.~.E.~.~.~.~.~.~.~.~.~.~.~.~.~.T.i . 6 M.K.G.G.G.G.G.G.G.G.G.K.W.D . @ ` b.b.b.f.1 .                             ",
"  . O u.^.~.~.~.~.~.~.~.~.~.~.~.~.~.~.~.~.~.~.U . @ +.K.G.G.G.G.G.G.G.G.G.G.G.G.M.0 . 0 f.b.b.) + .                             ",
"  . . Q ~.~.E.~.~.~.~.~.~.~.~.E.~.~.~.!.~.^.&.# . n G.G.G.G.G.G.G.G.G.G.G.G.G.G.K.,.@ X I b.b.k . .                             ",
"  . . d ~.~.~.~.~.~.~.~.~.~.~.~.~.~.~.~.^.w.- . w m.K.G.G.G.G.G.G.G.G.G.G.G.G.G.G.G.c . ; 8.S.Y                                 ",
"    . : x.~.~.~.~.~.~.~.~.~.~.~.~.~.~.~.w., . 4 0.K.K.G.G.G.G.G.G.G.G.G.G.G.G.G.G.K.q.= . v                                     ",
"    . X  .~.~.~.E.~.~.~.~.~.~.~.~.~.~.&.: . , 1.K.G.G.G.G.G.G.G.G.G.G.G.G.G.G.G.G.G.K.D . .                                     ",
"    . . j ~.~.~.~.~.~.~.~.~.~.~.^.T.U $ . 3 1.L.G.G.G.G.G.G.G.Z.K.G.G.G.G.G.G.G.G.G.K.s.* .                                     ",
"      . % j.~.~.~.~.~.~.~.~.~.~.r.i X . e 0.K.G.G.G.G.G.G.N.c w W m.K.G.G.G.G.G.G.G.G.G.z . .                                   ",
"      . . G ~.~.~.~.~.~.~.~.j.V $ . + b m.K.K.G.G.G.G.G.K.m.4 . . 4 +.K.G.G.G.G.G.G.G.K.%.+ .                                   ",
"        . < C.~.~.^.~.A.*.z % . . 9 +.G.G.G.G.G.G.G.G.G.G.G.y.B & . % 1.K.G.G.G.G.G.G.G.N.9 .                                   ",
"        . . L x.w.{ z 2 o . . 4 T m.K.K.G.G.G.G.G.G.G.G.G.W.].].l.6 . v K.G.G.G.G.G.G.G.P.H . .                                 ",
"          . + & O . . . $ r ! m.L.K.G.G.G.G.G.G.G.G.G.G.J.'.[././.v . s G.G.G.G.G.G.G.G.L.,.O .                                 ",
"          . . . % 4 g E 5.Z.H.G.G.K.G.G.G.G.G.G.N.n.G.!.'.]./.~.C.5 . H K.K.G.G.G.G.G.G.K.M.1 .                                 ",
"            . o ! N.K.K.K.G.G.G.G.G.G.G.G.G.G.G.z 1 y.].]./.~.~.L . * 0.K.G.G.G.G.G.G.G.K.G.g . .                               ",
"            . . 0 M.K.K.K.G.G.G.G.G.G.G.G.G.G.V.r . m [.'.~.~. .# . b G.G.G.G.G.G.G.G.G.K.K.K . .                               ",
"              . X b G.G.G.G.G.G.G.G.G.G.G.G.G.K.~ X % I.'.C.J @ . t m.K.G.G.G.G.G.G.G.G.G.K.+.o .                               ",
"                . O ( K.G.G.G.G.G.G.G.G.G.G.G.G.M.6 . 6 B 5 . . t k.K.G.G.G.G.G.G.G.G.G.G.K.4.# .                               ",
"                . . - 1.K.G.G.G.G.G.G.G.G.G.G.G.K.+.* . . . & D M.K.G.G.G.G.G.G.G.G.G.G.G.G.s.- .                               ",
"                  X . 2 5.K.G.K.G.G.G.G.G.G.G.G.K.K.4.b g K 5.G.K.G.G.G.G.G.G.G.G.G.G.G.G.G.M.4 .                               ",
"                  W ; . 9 q.K.K.G.G.G.G.G.G.G.G.G.G.K.K.G.K.K.G.G.G.G.G.G.G.G.G.G.G.G.G.G.G.Z.9 .                               ",
"                  P.+.% . 8 0.K.G.G.G.G.G.G.G.G.G.G.G.G.G.G.G.G.G.G.G.G.G.G.G.G.G.G.G.G.G.K.G.e .                               ",
"                    P.+.* . 1 1.K.G.G.G.G.G.G.G.G.G.G.G.G.G.G.G.G.G.G.G.G.G.G.G.G.G.G.G.G.G.Z.t .                               ",
"                    K.K.@.- . = / G.G.G.G.G.G.G.G.G.G.G.G.G.G.G.G.G.G.G.G.G.G.G.G.G.G.G.G.G.G.i .                               ",
"                    P.K.K.<.1 . O v m.L.G.G.G.G.G.G.G.G.G.G.G.G.G.G.G.G.G.G.G.G.G.G.G.G.G.G.G.e . . . . . . . . . . .           ",
"                    E 4.K.D.8.y . . 6 $.G.K.G.G.G.G.G.G.G.G.G.G.G.G.G.G.G.G.G.G.G.G.G.G.G.G.D.0 . . . . $ 4 q q 2 @ . . .       ",
"                    . 5 n.F.b.f.S $ . @ z 0.K.K.G.G.G.G.G.G.G.G.G.G.G.G.G.G.G.G.G.G.G.G.G.G.N.4 . o q { a.Y.E.E.A.r.V ; . .     ",
"                    . . P K.S.b.S.' w X . * b 0.G.K.K.K.G.G.G.G.G.G.G.G.G.G.G.G.G.G.G.G.G.G.G.J t +.G.~.~.~.E.~.~.~.^.j.d . .   ",
"                    . . = 0.F.b.b.S.c.Y 1 . . % l %.M.L.K.K.K.K.G.G.K.G.G.G.G.G.G.G.G.G.G.G.G.G.G.K.H.~.~.~.~.~.~.~.~.~.Y.i . . ",
"                      . . r M.S.b.b.b.S.S . . . . O 5 D %.k.G.P.H.K.K.K.G.G.G.G.G.G.K.G.G.G.G.G.G.G.K.W.~.~.~.~.~.~.~.~.~.&.X . ",
"                        . . j M.S.b.b._ % . .   . . . . o , p H ..4.s.M.N.Z.G.G.Z.V.M.K.G.G.G.G.G.G.G.G.W.~.~.W.W.J.W.W.!.=.X . ",
"                          . . g 9.d.^ = . .           . . . . . . @ * 2 9 w e e w 9 4 P G.G.G.G.G.G.G.G.G.G.G.G.G.K.K.K.L.A . . ",
"                            . . * 1 o . .                   . . . . . . . . . . . . . p G.G.G.G.G.G.G.G.G.G.G.G.G.G.K.K.~ $ . . ",
"                              . . . . .                                           4 ! s.G.G.G.G.G.G.G.G.K.G.G.G.K.K.n.b + . .   ",
"                                                                                    K.K.G.G.G.G.G.G.G.Z.N.K.K.G.s.E 4 . . .     ",
"                                                                                  K.G.G.G.G.G.G.G.G.G.v 4 s g e * X . .         ",
"                                                                                  K.G.G.G.G.G.G.G.G.M.4 . . . . . . .           ",
"                                                                                  K.G.G.G.G.G.G.G.G.K.i . . .                   ",
"                                                                                ; ( G.G.G.G.G.G.G.G.G.g . .                     ",
"                                                                                . 0 Z.G.G.G.G.G.G.G.Z.w .                       ",
"                                                                                . 1 m.K.G.G.G.G.K.K.s.- .                       ",
"                                                                                . @ 1.K.G.G.G.G.G.K.E . .                       ",
"                                                                                . . C K.G.G.G.G.K.k.4 . .                       ",
"                                                                                  . ; 0.K.G.G.G.K.b . .                         ",
"                                                                                  . . s M.L.P.L.~ O .                           ",
"                                                                                    . . i +.%.D $ . .                           ",
"                                                                                      . . X o . . .                             ",
"                                                                                        . . . . .                               "
};
