/* XPM */
static char *f9df4762bf574015a64a5f0db4dabf2ecv9E7NavRSInpRKd[] = {
/* columns rows colors chars-per-pixel */
"64 64 61 1 ",
"  c None",
". c #4DA7D7",
"X c #4DA7D8",
"o c #4EA7D8",
"O c #4FA7D8",
"+ c #50A8D9",
"@ c #50A8DA",
"# c #51A8DA",
"$ c #52A9DB",
"% c #53AADC",
"& c #54AADC",
"* c #56ABDE",
"= c #57ACDF",
"- c #59ADE0",
"; c #59ADE1",
": c #5BAEE2",
"> c #5DAFE3",
", c #5DB0E3",
"< c #5EB0E4",
"1 c #5FB1E5",
"2 c #60B1E6",
"3 c #65B4E9",
"4 c #66B5EA",
"5 c #6DB8EF",
"6 c #6DB9EF",
"7 c #6FBAF1",
"8 c #73BCF3",
"9 c #73BCF4",
"0 c #75BDF5",
"q c #76BEF6",
"w c #77BEF7",
"e c #78BFF8",
"r c #79C0F9",
"t c #7AC0F9",
"y c #7BC0F9",
"u c #7CC1F9",
"i c #7DC1F9",
"p c #7EC2F9",
"a c #7FC3FA",
"s c #80C3FA",
"d c #82C4FA",
"f c #83C5FA",
"g c #85C6FA",
"h c #86C6FA",
"j c #88C7FB",
"k c #89C8FB",
"l c #8BC9FB",
"z c #8CC9FB",
"x c #8DCAFB",
"c c #92CCFC",
"v c #93CDFC",
"b c #9AD1FD",
"n c #9DD2FD",
"m c #A1D4FE",
"M c #A3D5FE",
"N c #A4D6FE",
"B c #A6D6FF",
"V c #A7D7FF",
"C c #A8D8FF",
"Z c #A9D8FF",
"A c #AAD8FF",
/* pixels */
"                                                                ",
"                                                                ",
"                                                                ",
"                                                                ",
"                                                                ",
"                                                                ",
"                                                                ",
"ZZZZ                        ZZZZZZZZ                        ZZZZ",
"ZZZZZ                      ACACAZZZZZ                      ZZZZZ",
"ZZZZZZZ                  ACCACACZZZZZZZ                  ZZZZZZZ",
"ZZZZZZZZ                ZZCACACAZZZZZZZZ                ZZZZZZZZ",
"ZZZZZZZZZ              ZZZACACACZZZZZZZZZ              ZZZZZZZZZ",
"ZZZZZZZZZZ            ZZZZZZCACAZZZZZZZZZZ            ZZZZZZZZZZ",
"ZZZZZZZZZZZZ        ZZZZZZZZACACZZZZZZZZZZZZ        ZZZZZZZZZZZZ",
"ZZZZZZZZZZZZZZZZZZZZZZZZZZZZCACAZZZZZZZZZZZZZZZZZZZZZZZZZZZZZZZZ",
"ZZZZZZZZZZZZZZZZZZZZZZZZZZZZACACZZZZZZZZZZZZZZZZZZZZZZZZZZZZZZZZ",
"ZZZZZZZZCACACACACACACACACACACACAACACACACCACACACAZZZZZZZZZZZZZZZZ",
"ZZZZZZZZACACACACACACACACACACACACCACACACAACACACACZZZZZZZZZZZZZZZZ",
"ZZZZZZZZCACACACACACACACACACACACAACACACACCACACACAZZZZZZZZZZZZZZZZ",
"ZZZZZZZZACACACACACACACACACACACACCACACACAACACACACZZZZZZZZZZZZZZZZ",
"CVCCZZZZCACACACACACACACACACACCCAACCAACACCACACACAZZZZZZZZCACAZCCA",
"mVCCZZZZACACACACACACACACACACACMMMMCCCACAACACACACZZZZZZZZACACZCVM",
"asgvmZZZCACACACACACACACACACMchfssfhcmCCACACACACAZZZZZZZZCACmcjaa",
"eettavVZACACACACACACACACACcseeeeeeeescCCACACACACZZZZZZZZCCvseeee",
"eeeesexVCCACCACACACAACAAMzeeeseseeeseszMACACACCAACACACCCVzeaesee",
"eaeaeeezMCCAACACACACCCAMjeseeeeeseeeeeejMCCACAACCACACAAMjeeeeese",
"seeesesedmAACAACACCACAmjeeeeeseeesesseeejmCCAACAACACAAMjeaeaeeee",
"eeeaeeeeedbCAACCCACACbfaseseeeseeeeeeeesedbCACACCACACbfeeeeesese",
"eeseeeseeescbCCCACCbzeeeeeeseeesseseeeeesescnCCCACCbceeeeeeeesee",
"eseeeseeeseeedjccjfaeeesseeeseeeeeeeeseseeeeedzcxjjeeeesseseeese",
"eeeeeeeeeeeeeeeaeeeeseseeseseseseeseseeeaeaeeeeeeeeeeseeeeeseeee",
"eseseseseseseseeeeaeeeeeeeeeeeeeeseeeeeseeeeeaeaeseeeeseseeesese",
"tttttttttttttttttttttttttttttttteeseeeeeeeeeeseeeeeseeeeeseeeees",
"tttttttttttttttttttttttttttttttteseeesesseseeeseseeeseseeeseseee",
"tttttttttttttttttttttttttttttttteeeeseeeeeeseeeeeseseeeseeeeeses",
"tttttttttttttttttttttttttttttttteseseeesseeeseseeeeeseeeseseeeee",
"90etettttttttttttttttttttttteee000weeeeseeeeeseseseeeseeaeeeee00",
"@*;49attttttttttttttttttttt93;@@#&:3weeeseseeeeeeeseeeseeee05:&#",
"oooo@4ttttttttttttttttttte4@ooooOXXX-4eeeeeseseeeeeeeeeeee4#oooo",
"oooooo<0tttttttttttttttee<@@ooooXOXXX#2eseeeeesesesesesee2oooooo",
"ooooooo;9ttttttttttttee0>oooooooOXOXOXO:0eeeeeeeaeaeeee9>OXOXOXO",
"oooooooo-8ttttttttttta0;ooooooooXOXOXOXO;0seseseeeeeee9;OOOXOXOX",
"ooooooooo*6taetttttee7*oooooooooOXOXOXOXX;5eeeeeeeeea5;XOOXOXOXO",
"oooooooo.@@<70tttte72OooooooooooXOXOXOXOXO#28eeeea092#XOOOOXOXOX",
"oooooooooooX@*<<2:;oooooooooooooOXOXOXOXXOXXO;:24>;OXXOXXOXOXOXO",
"oooooooooooo@.@.o.ooooooooooooooXOXOXOXOOXOXXXOOooooOXXOOXOXOXOX",
"oooooooooooo.oooooooooooooooooooOXOXOXOXXOXOOXOXooooXOXOXOXOXOXO",
"ooooooooooooooooooooooooooooooooXOXOXOXOOXOXXOXOooooOXOXOXOXOXOX",
"oooooooooooooooooooooooooooooooooooooooooooooooooooooooooooooooo",
"oooooooooooooooooooooooooooooooooooooooooooooooooooooooooooooooo",
"oooooooooooooooooooooooooooooooooooooooooooooooooooooooooooooooo",
"oooooooooooooooooooooooooooooooooooooooooooooooooooooooooooooooo",
"ooooooooooooooooooooooooooooooooooooooooooooooooooooooooOXOXoooo",
"ooooooooooooooooooooooooooooooooooooooooooooooooooooooooXOXOoooo",
"#oooooooooooooooooooooooooooooooooooooooooooooooooooooooOXOXOOoO",
" oooooooooooooooooooooooooooooooooooooooooooooooooooooooXOXOOOO ",
"  #OooooooooooooooooooooooooooooooooooooooooooooooooooooOXOOO@  ",
"                                                                ",
"                                                                ",
"                                                                ",
"                                                                ",
"                                                                ",
"                                                                ",
"                                                                "
};
