/* XPM */
static char *cd6ee2ec14c342cb83b17eb9cad0966d4Ui9JQKBMzJ48bRK[] = {
/* columns rows colors chars-per-pixel */
"64 64 129 2 ",
"   c None",
".  c #3B3E54",
"X  c #3D4056",
"o  c #3F4259",
"O  c #41455C",
"+  c #44485E",
"@  c #464B63",
"#  c #494E65",
"$  c #4D5166",
"%  c #4C526B",
"&  c #51566A",
"*  c #55596C",
"=  c #4F5771",
"-  c #505771",
";  c #525A73",
":  c #5A5E71",
">  c #565E7A",
",  c #5E6274",
"<  c #57607B",
"1  c #5A627C",
"2  c #54687F",
"3  c #626677",
"4  c #666A7B",
"5  c #686D7D",
"6  c #5C6682",
"7  c #566B82",
"8  c #5F6986",
"9  c #5B6F88",
"0  c #5E738C",
"q  c #636D86",
"w  c #626D8B",
"e  c #6D7282",
"r  c #64728E",
"t  c #6B748B",
"y  c #717685",
"u  c #757A8A",
"i  c #657491",
"p  c #6A7694",
"a  c #637893",
"s  c #6B7897",
"d  c #677B98",
"f  c #6D7C9B",
"g  c #727E99",
"h  c #717FA0",
"j  c #7C808F",
"k  c #6C819E",
"l  c #7D8392",
"z  c #75829D",
"x  c #6F84A2",
"c  c #7384A4",
"v  c #7A88A4",
"b  c #7787A8",
"n  c #758AA9",
"m  c #7A8BAD",
"M  c #7D8EB1",
"N  c #7E91B3",
"B  c #818694",
"V  c #878D9A",
"C  c #8A8F9C",
"Z  c #8B919E",
"A  c #8291AD",
"S  c #9197A3",
"D  c #9399A4",
"F  c #979DA8",
"G  c #989EA9",
"H  c #8293B4",
"J  c #8A9AB7",
"K  c #8396BA",
"L  c #8599BD",
"P  c #8C9CB9",
"I  c #9CA2AD",
"U  c #9FA8B6",
"Y  c #90A1BF",
"T  c #99A6BB",
"R  c #A5ACB5",
"E  c #A8AEB7",
"W  c #ACB3BC",
"Q  c #B0B7BF",
"!  c #879CC1",
"~  c #8A9EC3",
"^  c #8CA1C6",
"/  c #8EA3C9",
"(  c #94A6C3",
")  c #96A8C6",
"_  c #90A5CC",
"`  c #95AACD",
"'  c #9AADCB",
"]  c #9EB1D0",
"[  c #B5BBC3",
"{  c #A2B6D5",
"}  c #ABBAD3",
"|  c #A5B9D8",
" . c #A9BEDE",
".. c #BDC4CB",
"X. c #AAC0DF",
"o. c #B5C5DD",
"O. c #ADC3E3",
"+. c #B0C6E7",
"@. c #B6CAE4",
"#. c #B4CBEB",
"$. c #BDD6F7",
"%. c #BED7F8",
"&. c #BFD8F9",
"*. c #C1C8CF",
"=. c #C5CCD2",
"-. c #C8CFD5",
";. c #C9D0D6",
":. c #CDD5DA",
">. c #D2DADE",
",. c #D5DDE1",
"<. c #CBDEF3",
"1. c #C5DDFA",
"2. c #C9DFF9",
"3. c #D9E1E4",
"4. c #DEE6E9",
"5. c #CFE1F5",
"6. c #CAE0FA",
"7. c #DEEAF2",
"8. c #D1E5FA",
"9. c #DCEDFC",
"0. c #E6EEF1",
"q. c #E0EFFC",
"w. c #E7F0F2",
"e. c #ECF4F6",
"r. c #E6F4FD",
"t. c #E8F5FD",
"y. c #EEF9FC",
"u. c #F6FFFF",
"i. c #F8FFFF",
/* pixels */
"                                                                                                                                ",
"                                                                                                                                ",
"                                                                                                              . .               ",
"                                                                                                    . . O # - 6 8 O             ",
"                                                                                            . X O % 6 s b K ~ / ~ =             ",
"                                                                                      . X @ > d m ~ / / _ / / / b O             ",
"                                                                                . o # 6 c H ^ / / / / / ! N / K % .             ",
"                                                                          . X @ < c K / / / / / / / / / a a ~ 6 .               ",
"                                                                      . O ; s H / / / / ^ ^ ^ / / / / ^ N L b O                 ",
"                                                                  . @ 8 n ^ / / / / / / m 7 N / / / / / / ^ > .                 ",
"                                                            . o % i H / / / ^ / / / / / N 0 K / / / / / / m O                   ",
"                                                        . o = f L / / / / / / / / / / / / ^ / / / / / / / w .                   ",
"                                                    . o ; x ! / _ / ^ ^ / / / / / / / / / / / / ^ / / / m @                     ",
"                                                . o ; c ^ / / / / / n L / / / / / / ^ / / / / / / / / b $ .                     ",
"                      X X X X X X X         . o = h ~ / / / _ N L ^ 0 N / / / / ^ / / / / / / / / H q O .                       ",
"                X X X X X X X X X X X X . X $ s ~ / / / ^ ! / d m L 7 M / / / / / / / / ^ / / K w @ .                           ",
"            X X . o . o . . . o . X . . @ w K _ / / / / N k ^ 0 x ^ 7 x / / / / ~ / _ _ _ K i # .                               ",
"            X X o . o . . o o . . X . % b / _ / / / / / x a ^ 0 d / k r ~ / / / _ / _ K i $ .                                   ",
"            X X . o o . o . o o O . > K / / / / / / / / k 9 ^ x 0 ^ ~ d K _ / / _ H r # .                                       ",
"            X X o . . o . o . . O q ~ / / / / / / / / / m 2 K ! 0 N _ ~ ~ / / ~ w @ . .   X                                     ",
"            X X o . o . . o . o p ~ _ / / ~ _ / / / / / ^ 0 c / K K _ / _ ^ ` } l 4 : & @ X . .                                 ",
"              X . . . o o . o p ~ _ ~ / / / / / / / ^ / / L n / / / ^ N m o.7.u.u.e.w.4.:.E u + . o o                           ",
"                . o . o . o w / _ _ / / ~ / / / / / / / / / / / / N 8 @ Z u.i.u.u.i.i.i.u.i.u.-.y o .                           ",
"                o . o . . 8 ~ / _ ~ / / _ / / / / / / / / / / K r # 4 [ e.u.u.u.u.u.u.u.u.u.u.i.e.G O .                         ",
"                  X X . = ! / / _ _ _ / / / / / _ _ / _ / ~ f % : E w.i.i.u.u.i.u.i.u.u.u.u.u.u.u.u.G O                         ",
"                  X . @ M / / / / ~ ~ / / _ _ ~ H b f i i ; & D 4.u.u.u.u.u.u.u.u.u.u.u.u.u.u.u.u.i.y.u . o                     ",
"                  . o s / / / / ~ _ _ _ ~ M w - $ & : 4 5 l :.u.i.u.u.u.u.u.u.u.u.u.u.u.u.u.u.i.u.0.W , .                       ",
"                  . ; ~ / / / / _ _ ~ b > # 4 D ..,.w.e.e.u.i.u.u.u.u.u.u.u.u.u.u.u.u.u.u.i.i.w.E 3 o .                         ",
"                  O b / / / / / _ H > $ l *.w.i.i.i.i.e.3.i.u.u.u.u.u.u.u.i.u.u.i.u.u.u.u.u.[ 4 O .                             ",
"                . < ~ / / / / / h # e *.u.i.i.u.u.i.u.D y e.i.u.u.i.u.u.u.u.u.u.u.u.u.i.>.j O .                                 ",
"                O b / / / / ^ r # F w.i.i.i.i.u.u.u.W $ [ u.u.u.u.u.u.u.u.u.u.u.i.i.e.R & .                                     ",
"              . - ~ / / / ~ 8 & [ u.i.u.y.r.q.9.8.T # I u.u.u.u.u.u.u.u.u.u.u.i.i.3.u O                                         ",
"              . i _ / / / w & ..u.y.r.8.1.1.%.#.v @ G u.i.u.u.u.u.u.u.u.u.u.i.e.W : .                                           ",
"              @ M _ ^ _ f # [ u.9.1.$.O.] ( H 1 * W u.u.u.u.u.u.u.u.u.u.i.u.;.u O .                                             ",
"              % ~ _ _ m # I t.2.+.P r ; $ % , Z >.i.i.u.u.u.u.u.u.i.i.u.-.B # .                                                 ",
"            . 8 _ ~ ~ ; t <.#.A ; # t P { @.0.u.i.i.u.u.u.u.u.i.i.0.[ u @ .                                                     ",
"            . s _ _ p % { ) > . o J $.%.$.9.u.u.u.u.u.i.i.u.w.=.S , O .                             X X                         ",
"            O c _ K $ v A # ; + z $.$.$.$.9.u.u.u.i.u.4.[ V , + . . .                           X X X X X                       ",
"            O m _ b @ > # f w ; O.&.$.$.$.2.y.u.u.,.C * X . . X . X O                       X X X X X X X                       ",
"            O H _ ~ q ; b K # H 1.$.$.$.$.$.1.<.R & .     X X X X X                   X X X X X X X X X X                       ",
"            + H / / / ~ _ f & O.$.$.$.$.$.&.$.c o         X X X X X                 X X X X X X X X X X X                       ",
"            O M / / / / / > p $.$.$.%.$.%.$.A .           X X X X               X X X X X X X X X X X X                         ",
"            O m _ / / / ! % J $.%.$.%.$.%.{ # .         X X X X               X X X X X X X X X X X X                           ",
"            o f / / / / M % ] $.$.$.$.$.$.g .             X X               X X X X X X X X X X X X                             ",
"            . w / / / / b %  .&.$.%.$.$.#.; .                             X X X X X X X X X X X X                               ",
"              % ! / / / b % O.%.$.$.$.%.{ + . X                         X X X X X X X X X X X                                   ",
"              O b / / / b %  .$.%.$.$.$.' O X X X                       X X X X X X X X X X                                     ",
"              . 6 ~ / / M @ { 1.$.$.$.1.' O X X X X                   X X X X X X X X X X                                       ",
"                O h _ / ! % P &.%.$.$.%.O.$ X X X X X X X X X X X X X X X X X X X X X X X                                       ",
"                . % M / ~ > g $.$.$.$.%.$.q . X X X X X X X X X X X X X X X X X X X X X                                         ",
"                  . % N _ f % O.$.$.$.$.$.^ O X X X X X X X X X X X X X X X X X X X X X                                         ",
"                    X $ b K % z $.$.$.$.$.#.q X X X X X X X X X X X X X X X X X X X X                                           ",
"                      . O w i @ J $.$.$.$.$. .; . X X X X X X X X X X X X X X X X X X                                           ",
"                          . @ O O z O.$.&.$.1.{ 1 . X X X X X X X . X X X X X X X X X                                           ",
"                              . . . % z ) X.#.$.X.z @ X X X X X X X X X X X X X X X X X                                         ",
"                                  X . . o % ; 1 4 1 @ X X X X X   X X X X X X X X X X X                                         ",
"                                                                    X X X X X X X X X X                                         ",
"                                                                      X X X X X X X X X X                                       ",
"                                                                        X X X X X X X X X X                                     ",
"                                                                          X X X X X X X X X X                                   ",
"                                                                              X X X X X X X X                                   ",
"                                                                                    X X X X                                     ",
"                                                                                                                                ",
"                                                                                                                                "
};
