/* XPM */
static char *ab449f0788dc46a6aa31dd5353fec8f8JEPAsJHDUVOHlgY7[] = {
/* columns rows colors chars-per-pixel */
"64 64 88 1 ",
"  c #010101",
". c #080707",
"X c #090807",
"o c #0C0A0A",
"O c #110E0D",
"+ c #13100F",
"@ c #151211",
"# c #191514",
"$ c #1D1817",
"% c #1F1A18",
"& c #231E1C",
"* c #26201E",
"= c #28221F",
"- c #2B2422",
"; c #2F2825",
": c #312927",
"> c #352C2A",
", c #382F2C",
"< c #3A312E",
"1 c #3E3431",
"2 c #413633",
"3 c #433835",
"4 c #473C38",
"5 c #493E39",
"6 c #4E423E",
"7 c #50433F",
"8 c #534642",
"9 c #554843",
"0 c #594B46",
"q c #5D4E49",
"w c #5F504B",
"e c #61524D",
"r c #665651",
"t c #685752",
"y c #675852",
"u c #6A5953",
"i c #6F5E58",
"p c #705E58",
"a c #73615A",
"s c #75635C",
"d c #78655E",
"f c #79655F",
"g c #7A6660",
"h c #7A6760",
"j c #7C6862",
"k c #7D6A63",
"l c #7F6B64",
"z c #806C65",
"x c #816D65",
"c c #836E67",
"v c #846E67",
"b c #846F67",
"n c #836F68",
"m c #856F68",
"M c #857068",
"N c #867068",
"B c #86716A",
"V c #87716A",
"C c #89736C",
"Z c #89746C",
"A c #8A756D",
"S c #8A756E",
"D c #8C756E",
"F c #8C766E",
"G c #8C766F",
"H c #8C776F",
"J c #8F7971",
"K c #937C74",
"L c #967D75",
"P c #957E75",
"I c #967F77",
"U c #978077",
"Y c #9A8279",
"T c #9B837A",
"R c #9C847B",
"E c #9D847C",
"W c #9D857C",
"Q c #9F877E",
"! c #A0877E",
"~ c #A2887F",
"^ c #A2897F",
"/ c #A18980",
"( c #A38980",
") c #A48A81",
"_ c #A48B82",
"` c #A58B82",
"' c #A58C83",
"] c #A78C83",
/* pixels */
"                                                                ",
" %,>,>>>,>,>OO11111111111<o@>>>>>>>>>>>:.#>>>>>>>>>>,- &>>>>>>% ",
" 6Bnnmmnnnmn;-R~~~~~~~~~~Y*:nnMMmmmnnmBd@6/WW!!W~WW!~Ho9BNnBnB6 ",
" 6mccccccccc;-W~/Q~~~~~Q~R&:cccccccccnmd+8)~~~~~~~~~~AO8Bccccv6 ",
" 6mccccccvcc;-W/~~~Q!~~~~Y&:vccccccnccmd@7/~/!/!~~/)/DO8Bccccm6 ",
" 6Bccccccccn;-W!~~~~!~~~/Y&>cccccccnccng@7)~!/!//W///Do8mccmcB6 ",
" 6Bcnmmnmnmm:-W)~)/!////)Y*:NcncnmmmmmBd@7))))/)////)Ho9BnmmmB6 ",
" 3saapaapapp-&BAVADAADCAAB$-aaaaapaapaatO3DCCCCCAADDDho6sapaaa3 ",
" .oooOoooooo. OOOOOOOooOOo .OooOoooooooo .oooOOO++o++o XooOooO. ",
" <reeq@&78668666665@&eeeeeeeeeeeqO&886858868682.<eeeeeeeeeeeee< ",
" e]))W=,BmBmvBmBmmc&>/))))))))))Y%1CmmmmmmmmmBsoy]__]~]_)))))]e ",
" w)~~R&>mcccnccnccl&>W!!/!!/!/!/I#<mcnncnnnnnmpoy]~Q~~/W///!~)w ",
" e~~!R&>ncccncccccz&>!!/!/!/!/!/I#<mmnncnznzmmpOr]~~W/~~~/~~~)e ",
" w/~/R&,nccncccccmz&>!/!/!)!////I%1mcnnnnmnnnmpor~/W~~~~~W~~~/w ",
" e]))W*,BmmBBBmmBBm&,)))))))))))Y#1Bmmmmmmmmmmpoy]]/]~~]]/)))]e ",
" 3saai#&qqqqqqqqqq0#&paaaaaaaspsu@-qqqqqqqqqqq8.6saaaaaaaaaaas3 ",
" .oXoXXXo.oo .ooooooXoooooX...o.oX.oXoo...ooooo.oooooo..o.oXoo. ",
" <tutttttury&&kccklcllllzj$-ttttttttutteo2czzzzzllclnuo2yytytt< ",
" 6BvNNBvvvBv;-R)~//////])!-:mmmmBvvvvBmg@8))))))~_~_]AO9AcNcBB7 ",
" 6Bccccvcccc;-W/~~~~/~//!W&>mcmcNvcvvvcd+8)//!/!Q~~~_Ao9Bccccv6 ",
" 6Bccccccvcc:-W^!/^^/~~~/E-:cccmczNcncvg@9//!/!/~~~~_Z+9vccccB6 ",
" 6Bccccccccc;-W^)!~/~~W~/W-:cccmcvzcnmmg+9)////!~QQ~~Zo8BccBcv6 ",
" 6BBBBBvBcvB:-W)///)/////W-:mmmVNNNNmmBk+9))/)//_____HO9BBBBVV6 ",
" *3233333332##888889988988@#222233423331.-988888888884.-433333* ",
" O####.X@@@@@@++@@@ X############ o####%######O.o#+##@#+@@++++o ",
" 9UPUJ%:sfhsdddddds&>PPPPPPPLPLLA$5UIPPPLPLLLLc@5khfghhghdggkg5 ",
" w]~~Y*>NcBnNnccvvm&<///!))/)/!)U$8)////)////)DO9BcvvvvvcvvvvB7 ",
" e~~~Y*>Ncccccccccz&<~~~/!///!!)P%5)W///!/!///G@9Nccvccccncvcm6 ",
" w]~~Y*>Ncccccccccl&<!~~!/!/!//!I%6)/!/!/!/!//D+8BcckNNvcccccv6 ",
" e/~~Y*>ncccccnnvck&<!//)!///!!/I#6)//!/!/!///D+8vmccclNcccccB6 ",
" w/~WY*,ccccccklclk&<W!W!W!!!!!/I%5/!!!!W//W//A+8clckccccccccm6 ",
" $>>>>oo-----------o+>>>>>>>>::>:.#>>>:>>>>>>:-.#-------=**-=-@ ",
" #:-:-:>;;:>O.&&-&=&&&&&&&.+:---;;:-::--.O&&&*&==&=&&& &:>>:>>$ ",
" q)!!!)L/~/P<&kczzzzcccccd&,!!/!WEE!EW!D+2vclckccklNctor/R!!W/e ",
" q)~)!/!////<&kcvvcccccccz#2!!/!///!!!/P@2mcccccNzNcniou//!/~)e ",
" q)/!/!/I///>&cczvccccccvj#2!/!///!//!WK@2mcnccccvvnmuot)//!~)q ",
" q)!/W/!)))/,&lnNcccvNccvj#2/!/!/!!!!!/P@2mvccmmzNmcmuot)!//~)e ",
" q)/~!)/)/)/<&lnvNcNvvvBvz#1/~)~)/!!))!K@2BmnmmmNvmBmiot)///~/w ",
" 8PPKKKKKKKK:%sggdsdggdjda#,KKKKLKKKKKKn@<dssssssddddeoePIPPPY0 ",
" o@@@#O@@#@@..+@@@++OOOOOO o@####@@@O@@O .OOOOOO+OOOOo O######o ",
" :9888+#32333333322o#888888888887o&22222222222>.>9888888988889: ",
" e]//W&,mvmmmnmcvBc&<]//~)/)/~)~Y#,mmmmmmmBmmmpor])))))))))))]e ",
" e/~/W-:mcccncncMcl&,////!/!/!/)I#1mznmzccmncvior)!)///!//!//)e ",
" q)~!W&,mcccnnccncc&,~/Q!/!///!/I%,mvcnccccccmior)/!/!!//!/!~/e ",
" e)//W&,mvcmvvvvvvv&,/~/~//~////I%1nzmmccnnzmmpor)/~//!/////~/e ",
" e)//W*>mvmmmmmmmvv&,/)/)~/))~)~P&,mmmmmmmmmmmpot)/))))//)///]e ",
" 5nlzk%-urrrreerere#-jkkjjjjzjczs@;rrrrrreerer8X6cvczzzzzzlllv7 ",
" .oooo ..o....o.... ..o..o..ooooo......o....XoX .oooo..ooooooo. ",
" 3sasaasaasp*#0qqqqqqqqqq0@-pppppsaaasarO;qqqqqqqqqqq6.5aasaas3 ",
" q]/)/)/)/])<&vBmmmmmnmmml%1)))])))))))P@4BcBvBvBcBvBi.u]))))]e ",
" q)/!~W~!~~!,&zcmcccnncccl$1/!/////!///P#3Bcccccccccmuoy///W~)w ",
" q)/!)/~/~!/,&lccccnnncccl#1!/!//!!/!//K#2Ncccccccccmu.r)/~/~)w ",
" q)/~~~~!///,&lnnncncccnnh$1////!/!////P@3BMvcccccccnuor)///~)e ",
" w]))))/))))<&nnmnmmmBmmBl%1//)))))))/)P#3BmvBBBBmBBBiou]))//]e ",
" >eeeeeweeee&@588858868785+&eeeeeeeeeee9o*867676667662.1eeewee< ",
" o+OOO..ooOoooooooo. ooooooOoOOoO .oooooooooXoo oo+OOOOO+O+O+O. ",
" 8PDDC&:spppppspapp%;BAACAAACCADc#:pppppiipippqX0JHHHDAKDKAJDK8 ",
" e)//Y&>BmnmBmmVmnc&>~//~/~/~)//P#<mmmmmvNBcMBioy]//]///Q~///]w ",
" w)~/Y*>mnnclnmmccl&>!~W~~!~~~^/P&,mccmncccccnioe]~~~~~W~Q~/~)e ",
" e/~~R*>mmncmccmnnl&>~~~~~~~~~!/I#,Bcccccccccmioe]W~~~~~~~~Q~/w ",
" e/~/Y*>mcccmccnccl&>/~~W!/~~W//P$<mccccccccccioy/~~~~~~~/W~~/e ",
" w)//Y*>BnmnmnmmmBc&>W!~/^!~~~)/P$<vcccccccccciXy]/~/~/////~/)w ",
" *3331o@>>>>>>>>>>>o@11111111111<o@>:::>:>:::>-.-3322332332333* ",
"                                                                "
};
